<svg width="18" height="12" viewBox="0 0 18 12" fill="none" xmlns="http://www.w3.org/2000/svg">
<path d="M17.8183 9.15468C17.794 9.13039 17.794 9.13039 17.794 9.10611C17.794 9.10611 17.794 9.08183 17.7697 9.08183C17.6726 8.96041 17.5026 8.88756 17.1141 8.6933C15.6571 8.03766 11.8204 6.31357 11.3347 1.23843V1.21415C11.2862 0.922753 11.0676 0.704206 10.8005 0.631357C10.5334 0.558508 10.242 0.65564 10.072 0.874186C9.41639 1.69981 8.22652 2.62256 6.98809 2.52543C6.01677 2.45258 5.16687 1.77266 4.46266 0.509942C4.29268 0.194263 3.95272 0 3.56419 0C3.05425 0 2.56859 0.267113 2.30148 0.728489C2.08293 1.16558 1.76725 1.65124 1.45157 2.1369C1.18446 2.57399 0.893066 3.01109 0.674519 3.39962L0.164577 4.2738C-0.00540381 4.58948 -0.0539699 4.95372 0.0674449 5.29369C0.164577 5.63365 0.383124 5.90076 0.674519 6.04646C0.795934 6.11931 2.01008 6.8478 7.66801 10.1017C10.2663 11.6073 12.2575 11.8987 14.8315 11.8987C16.3613 11.8987 17.3569 11.5101 17.794 10.7088C18.134 10.126 17.9883 9.47036 17.8183 9.15468Z" fill="#2263FF"/>
</svg>
