<svg width="16" height="15" viewBox="0 0 16 15" fill="none" xmlns="http://www.w3.org/2000/svg">
<path d="M7.09239 5.98319C7.31738 5.50528 7.01614 4.89251 6.87018 4.3849C6.70401 3.80559 6.46021 3.21282 6.45189 2.69749C6.43347 1.48916 7.33798 0.318473 8.43975 0.049913C9.65084 -0.245186 10.0927 0.853216 11.0681 1.12237C11.5201 1.24675 12.0776 1.20496 12.4115 1.37588C14.2978 2.34218 13.1029 4.8016 11.7514 5.53162C11.3373 5.75483 10.8907 5.98834 10.4268 6.19312C10.0386 6.36404 9.44507 6.43712 9.23335 6.91364C9.57182 7.16952 10.1587 6.78253 10.6356 6.60289C11.1527 6.40801 11.6526 6.17134 12.1087 6.04795C13.5317 5.66432 15.9937 6.54724 15.4639 8.47469C15.3171 9.00924 14.823 9.28572 14.6634 9.807C14.5495 10.1799 14.6653 10.5721 14.5939 10.9189C14.3756 11.9676 13.0084 12.6736 11.8673 12.325C10.8994 12.0293 10.2597 11.2373 9.59994 10.1946C9.42348 9.91533 9.29257 9.47506 8.90933 9.3691C8.73029 9.90067 9.20166 10.7632 9.44705 11.229C10.1129 12.492 11.1675 13.5639 12.1253 14.0188C11.8338 14.2549 11.26 14.3628 10.8598 14.5496C9.58766 13.6777 8.79506 11.5691 8.10128 9.67371C7.68794 9.87869 7.97274 10.5719 8.0375 10.9456C8.30567 12.4815 8.18307 14.4646 6.39109 14.9298C5.20396 15.2384 4.85855 14.4618 4.05347 13.9109C3.47911 13.5179 2.39656 13.6215 1.93589 12.7548C1.25716 11.4762 2.20306 9.92504 3.36405 9.34078C3.80095 9.12094 4.35015 8.96963 4.83736 8.78623C5.24931 8.63116 5.77792 8.56738 6.06688 8.16038C5.64086 7.82805 5.09305 8.22732 4.72388 8.34061C3.24719 8.79435 2.02283 9.01023 0.979289 8.33942C0.32413 7.91757 -0.237747 6.86928 0.102508 6.01072C0.265902 5.59896 0.665771 5.29357 0.897691 4.95192C1.54532 3.99751 1.06524 2.64896 2.73661 2.1974C3.65261 1.94964 4.87618 2.39684 5.4541 3.07319C6.15224 3.89115 6.28493 5.23058 7.09239 5.98319Z" fill="#2263FF"/>
</svg>
