<svg width="16" height="14" viewBox="0 0 16 14" fill="none" xmlns="http://www.w3.org/2000/svg">
<path fill-rule="evenodd" clip-rule="evenodd" d="M12.3447 1.4158L12.4963 1.31476C11.4691 0.62434 10.2734 0.152834 8.99365 0.0012781C8.79157 -0.0155614 8.60634 0.135994 8.60634 0.338068V2.6956C8.60634 2.864 8.72421 2.99871 8.89261 3.03239C9.2294 3.08291 9.54935 3.18395 9.8693 3.30182C10.0388 3.17244 10.2202 3.03359 10.4143 2.88498L10.4157 2.88396L10.4157 2.88394L10.4157 2.88392L10.4157 2.8839L10.4158 2.88384C10.9541 2.47178 11.5904 1.98466 12.3447 1.4158ZM3.04929 1.65155C4.1607 0.775898 5.54154 0.186515 7.02341 0.00128033C7.22549 -0.0155592 7.41072 0.135996 7.41072 0.321231V2.67876C7.41072 2.84716 7.29285 2.98188 7.14129 3.01555C6.40035 3.15027 5.70993 3.43654 5.12055 3.85753C4.98583 3.95857 4.8006 3.94173 4.68272 3.82385L3.01561 2.15674C2.88089 2.02202 2.89773 1.76943 3.04929 1.65155ZM3.82385 4.68268L2.15674 3.01556C2.00518 2.86401 1.76943 2.88085 1.65155 3.04924C0.775896 4.16065 0.186513 5.54149 0.0012781 7.02337C-0.0155614 7.22544 0.135994 7.41068 0.338068 7.41068H2.6956C2.864 7.41068 2.99871 7.2928 3.03239 7.14125C3.16711 6.40031 3.45338 5.70989 3.87437 5.1205C3.95856 4.96895 3.94173 4.78371 3.82385 4.68268ZM0.00128033 8.99371C0.169675 10.4588 0.742219 11.8228 1.65155 12.9847C1.76943 13.1362 2.02202 13.1531 2.15674 13.0184L3.82385 11.3512C3.94173 11.2334 3.95857 11.0481 3.85753 10.9134C3.4197 10.3072 3.13343 9.61678 3.01555 8.89268C2.98187 8.72428 2.84716 8.62325 2.67876 8.62325H0.321231C0.135996 8.60641 -0.0155592 8.79164 0.00128033 8.99371ZM13.8432 13.0015L12.1761 11.3343C12.0582 11.2165 12.0413 11.0312 12.1255 10.8965C12.5634 10.2903 12.8496 9.59987 12.9675 8.87577C13.0012 8.72421 13.1359 8.60634 13.3043 8.60634H15.6618C15.8639 8.60634 16.0155 8.79157 15.9986 8.99365C15.8134 10.4587 15.2577 11.8227 14.3484 12.9678C14.2305 13.1362 13.9947 13.153 13.8432 13.0015ZM13.3044 7.41046H15.6619C15.864 7.41046 16.0155 7.22522 15.9987 7.02315C15.8471 5.72651 15.3756 4.5309 14.6852 3.50369C14.6761 3.53104 14.6571 3.55838 14.6363 3.5884L14.6362 3.58841C14.6186 3.61384 14.5996 3.64119 14.5842 3.67208L14.1206 4.28713C13.5609 5.03002 13.0979 5.64463 12.6981 6.16433C12.816 6.46744 12.9002 6.80423 12.9676 7.14103C13.0012 7.29258 13.136 7.41046 13.3044 7.41046ZM13.052 2.37555C13.4393 2.10612 13.9108 2.57762 13.6246 2.94809C13.3968 3.24858 13.1584 3.56391 12.9164 3.88395C11.8701 5.26775 10.7574 6.73939 10.1556 7.47792C10.1893 7.64632 10.223 7.81471 10.223 7.99995C10.223 9.22923 9.22945 10.2228 8.00016 10.2228C6.77088 10.2228 5.77734 9.22923 5.77734 7.99995C5.77734 6.77066 6.77088 5.77713 8.00016 5.77713C8.1854 5.77713 8.35379 5.81081 8.52219 5.84449C9.43152 5.12039 11.4523 3.58799 13.052 2.37555Z" fill="#2263FF"/>
</svg>
