<svg width="18" height="11" viewBox="0 0 18 11" fill="none" xmlns="http://www.w3.org/2000/svg">
<path d="M15.3114 2.46901C13.2282 0.848723 11.0292 0 9.00386 0C4.12371 0 0.285164 4.72584 0.13085 4.91873C0.0462326 5.02213 0 5.15162 0 5.28523C0 5.41884 0.0462326 5.54833 0.13085 5.65172C0.895005 6.55857 1.75518 7.37994 2.69631 8.10145C4.77954 9.72173 6.9785 10.5705 9.00386 10.5705C13.884 10.5705 17.7226 5.84461 17.8769 5.63243C17.9566 5.53059 18 5.40495 18 5.27558C18 5.14621 17.9566 5.02058 17.8769 4.91873C17.1126 4.01199 16.2524 3.19064 15.3114 2.46901ZM9.00386 9.22022C8.22559 9.22022 7.4648 8.98943 6.8177 8.55705C6.17059 8.12467 5.66624 7.51011 5.36841 6.79108C5.07058 6.07206 4.99265 5.28086 5.14448 4.51755C5.29632 3.75424 5.67109 3.05309 6.2214 2.50277C6.77172 1.95245 7.47287 1.57768 8.23618 1.42585C8.9995 1.27402 9.79069 1.35194 10.5097 1.64977C11.2287 1.9476 11.8433 2.45196 12.2757 3.09907C12.7081 3.74617 12.9388 4.50696 12.9388 5.28523C12.9338 6.32729 12.5176 7.32523 11.7807 8.06208C11.0439 8.79894 10.0459 9.21515 9.00386 9.22022Z" fill="#2263FF"/>
</svg>
