<svg width="86" height="50" viewBox="0 0 86 50" fill="none" xmlns="http://www.w3.org/2000/svg">
<path d="M15.3785 21.2028H9.42048L4.17995 2.7309H1.52849L3.46249 4.54127V21.2028H0.374324V0H6.3635L11.5416 18.5333H14.2243L12.2903 16.6002V0H15.3785V21.2028Z" fill="#2263FF"/>
<path d="M14.2243 31.4667H3.08817V47.3305H10.3875V39.3832H5.36531L8.07915 36.7444H13.4757V50H10.3875V47.7294L8.07915 50H2.68265L0 47.3305V31.4667L2.68265 28.7972H11.5105L14.2243 31.4667Z" fill="#2263FF"/>
<path d="M31.3052 50H28.2482V42.0528H20.9177V50H17.8295V31.4667L20.5434 28.7972H31.3052V50ZM30.1822 31.4667H20.9177V41.6846L23.2572 39.3832H28.2482V33.3691L30.1822 31.4667Z" fill="#2263FF"/>
<path d="M53.201 49.9693H50.1128V33.3691L52.0468 31.4974H49.5201L45.3713 39.3832H43.1254L39.1326 31.4974H36.6371L38.5711 33.3691V49.9693H35.483V28.7972H41.0042L44.2172 35.7625H44.5915L47.8668 28.7972H53.201V49.9693Z" fill="#2263FF"/>
<path d="M68.1274 50H57.3656V34.0749L60.0794 31.4667H56.9913V28.7972H68.1274V31.4667H60.4538V39.015L62.7309 36.7444H68.1274V39.3832H60.4538V47.3305H68.1274V50Z" fill="#2263FF"/>
<path d="M85.4762 31.4667H74.8703V36.7444H82.0137L84.6651 39.3832V47.3305L82.0137 50H74.4648L71.7822 47.3305V45.2133L74.8703 42.2982V47.3305H81.577V39.3832H74.4648L71.7822 36.7444V31.4667L74.4648 28.7972H82.7623L85.4762 31.4667Z" fill="#2263FF"/>
<path d="M55.3861 13.2862H47.7125V21.2335H44.6243V5.30833L47.3382 2.70017H44.25V0.0306396H55.3861V2.70017H47.7125V12.918L49.9896 10.6167H55.3861V13.2862Z" fill="#2263FF"/>
<path d="M71.2178 2.70017H66.3828V21.2335H63.2946V2.70017H58.4908V0.0306396H71.2178V2.70017Z" fill="#2263FF"/>
<path fill-rule="evenodd" clip-rule="evenodd" d="M37.7172 14.0157L35.5428 16.579H31.6202L30.0003 14.5437L28.3586 16.5357L24.4902 16.579L22.3158 14.0157C22.6941 17.9355 25.9974 21.0001 30.0165 21.0001C34.0356 21.0001 37.3389 17.9355 37.7172 14.0157ZM37.0088 9.94742C35.7671 7.33353 33.1028 5.52637 30.0165 5.52637C26.9302 5.52637 24.2659 7.33353 23.0242 9.94742H37.0088Z" fill="#FF284A"/>
<path fill-rule="evenodd" clip-rule="evenodd" d="M37.6328 12.1579H22.3158C22.3699 11.78 22.4512 11.4108 22.5578 11.0526H37.3907C37.4974 11.4108 37.5787 11.78 37.6328 12.1579Z" fill="#2263FF"/>
<path fill-rule="evenodd" clip-rule="evenodd" d="M32.3737 4.22365C32.3737 4.40163 32.3659 4.56776 32.3501 4.72247C31.6175 4.52589 30.8473 4.42105 30.0526 4.42105C29.3356 4.42105 28.6385 4.50641 27.9709 4.6675C27.9586 4.52858 27.9526 4.38073 27.9526 4.22365V0.211255C28.6639 0.0729668 29.4037 0 30.1632 0C30.9226 0 31.6624 0.072963 32.3737 0.211244V4.22365ZM26.8473 4.22365C26.8473 4.48672 26.8746 4.74304 26.9264 4.9896C24.6214 5.86103 22.7759 7.66805 21.8533 9.94737H20.1053V8.71896C20.1053 4.91075 22.9217 1.67279 26.8473 0.484915L26.8473 4.22365ZM20.1053 15.4737H21.4891C21.8067 16.7077 22.384 17.8374 23.1592 18.8012V21L20.1053 18.1067V15.4737ZM38.6162 15.4737C38.3295 16.5874 37.8314 17.6161 37.1671 18.5146V20.971L40.2211 18.1067V15.4737H38.6162ZM38.252 9.94737H40.2211V8.71896C40.2211 4.91074 37.4046 1.67276 33.4789 0.484899L33.4789 4.22365C33.4789 4.51522 33.4454 4.79849 33.3822 5.06938C35.5923 5.96834 37.3567 7.73547 38.252 9.94737ZM19 11.0526H21.2105V14.3684H19V11.0526ZM38.8947 11.0526H41.1053V14.3684H38.8947V11.0526Z" fill="#2263FF"/>
</svg>
