<svg width="140" height="16" viewBox="0 0 140 16" fill="none" xmlns="http://www.w3.org/2000/svg">
<path d="M1 7C0.447715 7 -4.82823e-08 7.44772 0 8C4.82823e-08 8.55228 0.447715 9 1 9L1 7ZM139.707 8.70709C140.098 8.31657 140.098 7.68341 139.707 7.29288L133.343 0.928921C132.953 0.538396 132.319 0.538396 131.929 0.928921C131.538 1.31945 131.538 1.95261 131.929 2.34313L137.586 7.99999L131.929 13.6568C131.538 14.0474 131.538 14.6805 131.929 15.0711C132.319 15.4616 132.953 15.4616 133.343 15.0711L139.707 8.70709ZM1 9L139 8.99999L139 6.99999L1 7L1 9Z" fill="#2263FF"/>
</svg>
