<svg width="16" height="72" viewBox="0 0 16 72" fill="none" xmlns="http://www.w3.org/2000/svg">
<path d="M9 1C9 0.447715 8.55228 -2.41411e-08 8 0C7.44772 2.41411e-08 7 0.447715 7 1L9 1ZM7.2929 71.7071C7.68342 72.0976 8.31659 72.0976 8.70711 71.7071L15.0711 65.3431C15.4616 64.9526 15.4616 64.3195 15.0711 63.9289C14.6805 63.5384 14.0474 63.5384 13.6569 63.9289L8 69.5858L2.34315 63.9289C1.95262 63.5384 1.31946 63.5384 0.928935 63.9289C0.538411 64.3195 0.538411 64.9526 0.928935 65.3431L7.2929 71.7071ZM7 1L7 71L9 71L9 1L7 1Z" fill="#2263FF"/>
</svg>
