<svg width="72" height="16" viewBox="0 0 72 16" fill="none" xmlns="http://www.w3.org/2000/svg">
<path d="M1 7C0.447715 7 -4.82823e-08 7.44772 0 8C4.82823e-08 8.55228 0.447715 9 1 9L1 7ZM71.7071 8.7071C72.0976 8.31658 72.0976 7.68341 71.7071 7.29289L65.3431 0.928927C64.9526 0.538402 64.3195 0.538402 63.9289 0.928927C63.5384 1.31945 63.5384 1.95262 63.9289 2.34314L69.5858 7.99999L63.9289 13.6568C63.5384 14.0474 63.5384 14.6805 63.9289 15.0711C64.3195 15.4616 64.9526 15.4616 65.3431 15.0711L71.7071 8.7071ZM1 9L71 8.99999L71 6.99999L1 7L1 9Z" fill="#2263FF"/>
</svg>
