<svg width="71" height="50" viewBox="0 0 71 50" fill="none" xmlns="http://www.w3.org/2000/svg">
    <circle cx="46" cy="25" r="25" fill="#162740"/>
    <path d="M1 24C0.447715 24 4.82823e-08 24.4477 0 25C-4.82823e-08 25.5523 0.447715 26 1 26L1 24ZM51.7071 25.7071C52.0976 25.3166 52.0976 24.6834 51.7071 24.2929L45.3431 17.9289C44.9526 17.5384 44.3195 17.5384 43.9289 17.9289C43.5384 18.3195 43.5384 18.9526 43.9289 19.3431L49.5858 25L43.9289 30.6569C43.5384 31.0474 43.5384 31.6805 43.9289 32.0711C44.3195 32.4616 44.9526 32.4616 45.3431 32.0711L51.7071 25.7071ZM1 26L51 26L51 24L1 24L1 26Z" fill="#FF284A"/>
</svg>
