<svg width="44" height="44" viewBox="0 0 44 44" fill="none" xmlns="http://www.w3.org/2000/svg">
<path fill-rule="evenodd" clip-rule="evenodd" d="M35.8878 0.0211856C38.0892 -0.0888161 40.2484 0.653022 41.9174 2.09274C43.3571 3.76168 44.099 5.92088 43.989 8.12225C44.151 12.1265 42.5192 17.0681 39.5912 22.0098C42.5192 26.9051 44.151 31.8468 43.989 35.8973C44.099 38.0987 43.3571 40.2579 41.9174 41.9268C39.9962 43.8364 37.3113 43.9984 34.7305 43.9984C31.0618 43.9984 26.5598 42.4013 22 39.6585C17.4402 42.4013 12.9382 43.9984 9.26954 43.9984C7.97909 44.0158 6.69062 43.8916 5.42726 43.6281C4.16711 43.3805 3.00551 42.7736 2.08262 41.8805C0.654121 40.2234 -0.0869738 38.083 0.0110221 35.8973C-0.151002 31.8931 1.48081 26.9514 4.40882 22.0098C1.48081 17.1144 -0.151002 12.1728 0.0110221 8.12225C-0.0989815 5.92088 0.642869 3.76168 2.08262 2.09274C3.75158 0.653022 5.91082 -0.0888161 8.11222 0.0211856C12.1165 -0.210273 17.0583 1.4678 22 4.41891C26.8954 1.47938 31.8256 -0.152409 35.8878 0.0211856ZM3.726 3.68981C2.81172 4.65037 2.41824 5.8771 2.32565 8.12225C2.18677 11.5941 3.48297 15.6331 5.7976 19.8225C7.64545 17.0726 9.75377 14.507 12.0934 12.1612C14.4422 9.80764 17.0073 7.68041 19.7548 5.80766C16.38 3.75569 12.553 2.56352 8.60987 2.33578H8.11222C5.91333 2.42836 4.64028 2.72926 3.726 3.68981ZM3.726 40.2835C4.88332 41.4523 6.71187 41.6838 9.26954 41.6838C12.2438 41.6838 15.9588 40.4224 19.8127 38.2119C17.0648 36.3392 14.4962 34.2162 12.1397 31.8699C9.78343 29.5226 7.65953 26.953 5.7976 24.1971C3.48297 28.3865 2.18677 32.4254 2.32565 35.8973C2.41824 38.0962 2.81172 39.3692 3.726 40.2835ZM7.10536 22.0098C9.02841 24.9819 11.2631 27.7403 13.7715 30.2382C16.2762 32.7458 19.0337 34.9875 22 36.9273C24.9663 34.9875 27.7238 32.7458 30.2285 30.2382C32.7369 27.7403 34.9716 24.9819 36.8946 22.0098C34.9716 19.0377 32.7369 16.2793 30.2285 13.7814C27.7312 11.269 24.9727 9.03049 22 7.10383C16.0512 10.981 10.9779 16.0581 7.10536 22.0098ZM40.274 40.3298C41.1767 39.4271 41.5818 38.1425 41.6744 35.8973C41.8132 32.4254 40.517 28.3865 38.2024 24.1971C36.3411 26.957 34.2172 29.5305 31.8603 31.8815C29.5054 34.2398 26.9367 36.3745 24.1873 38.2582C28.0412 40.4686 31.7562 41.7301 34.7305 41.7301C37.2881 41.7301 39.1167 41.4871 40.274 40.3298ZM31.8603 12.1496C34.2166 14.497 36.3405 17.0665 38.2024 19.8225C40.517 15.6331 41.8132 11.5941 41.6744 8.12225C41.5818 5.92339 41.2809 4.63879 40.3203 3.7361C39.3597 2.83341 38.133 2.42836 35.8878 2.33578H35.3438C31.4007 2.56352 27.5737 3.75569 24.1989 5.80766C26.9459 7.67675 29.511 9.80009 31.8603 12.1496ZM29.7001 22C29.7001 26.2526 26.2526 29.7 22 29.7C17.7475 29.7 14.3 26.2526 14.3 22C14.3 17.7474 17.7475 14.3 22 14.3C26.2526 14.3 29.7001 17.7474 29.7001 22Z" fill="#2263FF"/>
</svg>
