<svg width="40" height="40" viewBox="0 0 40 40" fill="none" xmlns="http://www.w3.org/2000/svg">
<circle class="border" cx="20" cy="20" r="19.5" stroke="#E2E3E8"/>
<path class="icon" fill-rule="evenodd" clip-rule="evenodd" d="M11.8585 18.8501C16.5109 16.8231 19.6138 15.4864 21.166 14.8414C25.599 12.9979 26.5193 12.6774 27.1192 12.6668C27.2522 12.6641 27.5474 12.6974 27.7376 12.853C27.8654 12.9633 27.9471 13.1176 27.9664 13.2852C27.9987 13.4928 28.0077 13.7034 27.993 13.913C27.7523 16.4374 26.7122 22.5608 26.1842 25.3885C25.9607 26.5842 25.5192 26.9845 25.0935 27.0244C24.3594 27.0909 23.7649 26.668 23.1038 26.1958C22.9296 26.0721 22.7514 25.9458 22.5652 25.8234C21.831 25.3419 21.2644 24.9562 20.6965 24.5692L20.6511 24.5383C20.146 24.1947 19.6361 23.8478 19.0034 23.4307C17.6467 22.5369 18.2133 21.9889 18.9714 21.2601C19.0938 21.1417 19.2215 21.018 19.3465 20.889C19.4024 20.8305 19.675 20.5764 20.0607 20.2187C21.2977 19.0695 23.6837 16.8497 23.7449 16.593C23.7542 16.5504 23.7635 16.3935 23.6704 16.311C23.5773 16.2273 23.439 16.2565 23.3392 16.2791C23.1983 16.311 20.9545 17.794 16.608 20.7294C15.9709 21.1656 15.3937 21.3784 14.8763 21.3678C14.307 21.3558 13.2111 21.0459 12.3958 20.7813C12.3102 20.7527 12.2259 20.7262 12.1435 20.7003C12.1107 20.69 12.0782 20.6798 12.046 20.6695C11.2187 20.4102 10.6096 20.2187 10.6707 19.7319C10.7066 19.4446 11.103 19.1507 11.8585 18.8501Z" fill="#ffffff"/>
</svg>
