<svg width="40" height="40" viewBox="0 0 40 40" fill="none" xmlns="http://www.w3.org/2000/svg">
<circle cx="20" cy="20" r="19.5" stroke="#E2E3E8"/>
<path d="M29.3333 15.0048C28.6959 15.2873 28.0112 15.4781 27.2913 15.5644C28.0341 15.1199 28.5898 14.4204 28.8547 13.5964C28.1568 14.0109 27.3931 14.3026 26.5966 14.459C26.061 13.8871 25.3516 13.5081 24.5785 13.3807C23.8054 13.2533 23.0118 13.3848 22.3211 13.7546C21.6303 14.1244 21.081 14.7119 20.7584 15.426C20.4358 16.14 20.3579 16.9406 20.5369 17.7034C19.1229 17.6324 17.7396 17.2648 16.4768 16.6246C15.214 15.9844 14.0999 15.0859 13.2069 13.9872C12.9016 14.514 12.726 15.1247 12.726 15.7751C12.7256 16.3606 12.8698 16.9371 13.1457 17.4535C13.4217 17.97 13.8208 18.4103 14.3077 18.7355C13.743 18.7175 13.1908 18.5649 12.697 18.2904V18.3362C12.6969 19.1574 12.981 19.9533 13.5009 20.5889C14.0209 21.2245 14.7448 21.6607 15.5497 21.8233C15.0259 21.9651 14.4767 21.986 13.9436 21.8844C14.1707 22.591 14.6131 23.2089 15.2088 23.6516C15.8045 24.0943 16.5237 24.3396 17.2658 24.3532C16.0061 25.3421 14.4504 25.8785 12.8489 25.8761C12.5652 25.8762 12.2817 25.8596 12 25.8265C13.6256 26.8717 15.5179 27.4264 17.4505 27.4243C23.9927 27.4243 27.5692 22.0058 27.5692 17.3064C27.5692 17.1537 27.5653 16.9995 27.5585 16.8468C28.2541 16.3438 28.8546 15.7208 29.3318 15.0071L29.3333 15.0048Z" fill="#E2E3E8"/>
</svg>
