<svg width="40" height="50" viewBox="0 0 40 50" fill="none" xmlns="http://www.w3.org/2000/svg">
<path fill-rule="evenodd" clip-rule="evenodd" d="M23.1161 6.88389L21.5 5.26777L21.5 29C21.5 29.8284 20.8284 30.5 20 30.5C19.1716 30.5 18.5 29.8284 18.5 29L18.5 5.26777L18.4484 5.31933L18.3799 5.38785L18.3629 5.40486L18.3544 5.41336L18.3459 5.42184L18.3375 5.43031L18.329 5.43877L18.3121 5.45565L18.2953 5.47248L18.2869 5.48088L18.2785 5.48926L18.2451 5.52268L18.1789 5.58888L18.1136 5.65418L18.1055 5.66228L18.0974 5.67036L18.0893 5.67843L18.0813 5.68648L18.0652 5.70254L18.0492 5.71853L17.8026 5.96515L17.7878 5.97993L17.7805 5.98729L17.7731 5.99464L17.744 6.0238L17.7151 6.05264L17.7008 6.06693L17.6866 6.08113L17.6307 6.13708L17.5762 6.19158L17.4718 6.296L17.422 6.3458L17.3977 6.37007L17.3917 6.37607L17.3857 6.38205L17.3798 6.38799L17.3739 6.39391L17.283 6.48482L17.2721 6.49566L17.2667 6.50104L17.2614 6.50639L17.2561 6.51171L17.2508 6.517L17.2403 6.52749L17.2303 6.53742L17.2299 6.53786L17.2197 6.5481L17.1995 6.56823L17.1799 6.58785L17.1653 6.60242L17.1608 6.60697L17.1561 6.61167L17.1514 6.61633L17.1422 6.62557L17.1241 6.64365L17.1197 6.64809L17.1153 6.65249L17.1066 6.6612L17.1023 6.66551L17.098 6.66978L17.0965 6.6713L17.0896 6.67822L17.0854 6.68239L17.0812 6.68652L17.0771 6.69062L17.0731 6.69469L17.0572 6.7106L16.9506 6.81713L16.912 6.85572L16.904 6.86376L16.9029 6.86486L16.9021 6.86567L16.9002 6.86753L16.8839 6.88389C16.3957 7.37204 15.6043 7.37204 15.1161 6.88389C14.628 6.39573 14.628 5.60427 15.1161 5.11612L15.1289 5.10337L15.1443 5.08796L15.1623 5.06993L15.1723 5.05996L15.1829 5.04936L15.2894 4.94284L15.6061 4.62615L16.0349 4.19738L16.0647 4.16758L16.0722 4.16008L16.0797 4.15256L16.0872 4.14502L16.0948 4.13747L16.1559 4.07635L16.2181 4.0141L16.2815 3.95076L16.2975 3.93477L16.3055 3.92675L16.3135 3.91871L16.3296 3.90259L16.3458 3.88642L16.4111 3.82111L16.4193 3.81288L16.4276 3.80464L16.4358 3.79639L16.4441 3.78812L16.4773 3.75491L16.4857 3.74658L16.494 3.73823L16.5107 3.7215L16.5191 3.71311L16.5275 3.70471L16.5359 3.6963L16.5444 3.68788L16.6122 3.62008L16.6807 3.55156L16.8196 3.41265L16.9606 3.27163L17.0318 3.20048L17.0675 3.16477L17.1033 3.12898L17.175 3.05721L17.184 3.04822L17.193 3.03923L17.211 3.02123L17.22 3.01223L17.229 3.00323L17.247 2.98521L17.3192 2.91306L17.3553 2.87694L17.3734 2.85887L17.3824 2.84984L17.3914 2.8408L17.536 2.69624L17.5721 2.66014L17.6082 2.62406L17.6442 2.58802L17.6622 2.57002L17.6802 2.55202L18.2439 1.98834L18.261 1.97128L18.278 1.95427L18.2949 1.9373L18.3034 1.92883L18.3119 1.92038L18.3456 1.88667L18.3623 1.8699L18.3707 1.86153L18.3791 1.85317L18.3874 1.84482L18.3957 1.83649L18.4124 1.81987L18.4207 1.81158L18.4289 1.8033L18.4372 1.79503L18.4455 1.78678L18.4783 1.75391L18.511 1.72127L18.5755 1.65671L18.6391 1.59314L18.7016 1.53065L18.763 1.46927C19.4477 0.784561 20.5553 0.787551 21.2374 1.46967L24.8839 5.11612C25.372 5.60427 25.372 6.39573 24.8839 6.88389C24.3957 7.37204 23.6043 7.37204 23.1161 6.88389ZM13.2491 14.4284C14.1094 14.0799 15 14.7511 15 15.6794C15 16.2819 14.6105 16.8089 14.0529 17.0372C13.5059 17.2612 12.991 17.5164 12.5167 17.8125C12.2904 17.954 12.029 18.029 11.7623 18.029C11.4955 18.029 11.2341 17.954 11.0078 17.8125L9.1147 16.6295L6.63141 19.1183L7.88419 21.0993C8.02788 21.3246 8.10562 21.5857 8.10857 21.8531C8.11152 22.1204 8.03957 22.3832 7.9009 22.6116C7.13703 23.867 6.54342 25.2297 6.19711 26.6685C6.13521 26.9251 6.00359 27.1595 5.81684 27.3457C5.6301 27.5319 5.39555 27.6625 5.1392 27.7232L2.85079 28.2645V31.7188L5.1392 32.2601C5.39555 32.3207 5.6301 32.4514 5.81684 32.6376C6.00359 32.8238 6.13521 33.0581 6.19711 33.3147C6.54342 34.7536 7.1371 36.1168 7.9009 37.3717C8.03957 37.6 8.11152 37.8629 8.10857 38.1302C8.10562 38.3975 8.02788 38.6587 7.88419 38.8839L6.62027 40.8761L9.03119 43.3426L10.9967 42.0926C11.2242 41.9489 11.4877 41.8726 11.7567 41.8726C12.0257 41.8726 12.2891 41.9489 12.5167 42.0926C13.7572 42.8726 15.184 43.4131 16.7316 43.7891C16.993 43.8528 17.231 43.9893 17.4182 44.1828C17.6054 44.3764 17.7341 44.6191 17.7895 44.8828L18.2628 47.1429H21.6592L22.1269 44.9609C22.1846 44.6961 22.3163 44.4531 22.5065 44.2604C22.6968 44.0677 22.9379 43.9333 23.2016 43.8728C24.7642 43.5136 26.2234 42.9615 27.4944 42.1763C27.7201 42.036 27.9805 41.9616 28.2461 41.9616C28.5117 41.9616 28.7721 42.036 28.9978 42.1763L30.8964 43.3705L33.2962 41.0156L32.0991 39.0402C31.9626 38.8131 31.8919 38.5524 31.8949 38.2873C31.8978 38.0221 31.9743 37.7631 32.1158 37.5391C32.8861 36.3094 33.4338 34.9152 33.8085 33.404C33.873 33.1431 34.0096 32.9058 34.2026 32.7192C34.3957 32.5327 34.6373 32.4045 34.8998 32.3493L37.1492 31.875V28.2924L34.9777 27.8237C34.7142 27.7663 34.4722 27.6352 34.28 27.4455C34.0878 27.2559 33.9533 27.0155 33.892 26.7522C33.5335 25.2254 32.9689 23.7932 32.1938 22.5335C32.0545 22.3068 31.9813 22.0456 31.9823 21.7794C31.9832 21.5131 32.0584 21.2525 32.1993 21.0268L33.3797 19.1351L30.8853 16.6351L28.9978 17.8181C28.7721 17.9585 28.5117 18.0329 28.2461 18.0329C27.9805 18.0329 27.7201 17.9585 27.4944 17.8181C26.9936 17.5088 26.4658 17.2338 25.9158 16.9922C25.3743 16.7544 25 16.2332 25 15.6417C25 14.7022 25.9082 14.0293 26.7725 14.3978C27.2165 14.587 27.6522 14.7953 28.0791 15.0223L30.3396 13.6049C30.6132 13.4354 30.9358 13.3635 31.2553 13.401C31.5747 13.4385 31.8721 13.5831 32.0991 13.8114L36.1971 17.9185C36.424 18.1468 36.5673 18.4451 36.6037 18.7653C36.64 19.0854 36.5674 19.4084 36.3975 19.6819L34.9889 21.942C35.5362 22.9743 35.9762 24.0576 36.3029 25.1842L38.8753 25.7422C39.1945 25.8113 39.4803 25.988 39.685 26.243C39.8898 26.4979 40.0009 26.8156 40 27.1429V33.0357C39.9994 33.3628 39.8868 33.6798 39.6811 33.9337C39.4754 34.1876 39.189 34.3631 38.8697 34.4308L36.2027 34.9944C35.8747 36.0893 35.4422 37.1479 34.8998 38.1585L36.3196 40.5078C36.4867 40.7837 36.5556 41.1082 36.5152 41.4284C36.4747 41.7487 36.3273 42.0457 36.0969 42.2712L32.088 46.1998C31.8597 46.4228 31.5634 46.5626 31.2465 46.597C30.9296 46.6314 30.6103 46.5584 30.3396 46.3895L28.0735 44.9721C27.0165 45.5298 25.9085 45.9651 24.7606 46.2891L24.2038 48.8728C24.1349 49.1927 23.9585 49.4792 23.7041 49.6843C23.4497 49.8895 23.1328 50.0009 22.8062 50H17.1047C16.7776 49.9991 16.4607 49.8855 16.2072 49.6782C15.9538 49.471 15.7792 49.1826 15.7127 48.8616L15.1503 46.1942C14.0391 45.8705 12.9634 45.4373 11.9321 44.8884L9.58798 46.3839C9.31177 46.5606 8.98325 46.6366 8.65772 46.599C8.33219 46.5614 8.02953 46.4125 7.80067 46.1775L3.79177 42.0703C3.56613 41.8397 3.42513 41.5392 3.39176 41.218C3.3584 40.8967 3.43463 40.5736 3.60802 40.3013L5.08909 37.9688C4.56545 36.9982 4.13612 35.9713 3.8029 34.8884L1.09689 34.2467C0.784725 34.1725 0.506633 33.995 0.307585 33.7429C0.108536 33.4907 0.000169422 33.1787 8.25108e-06 32.8571V27.1429C-0.00108609 26.8204 0.106706 26.507 0.305854 26.2537C0.505004 26.0004 0.783795 25.8221 1.09689 25.7478L3.8029 25.106C4.13612 24.0232 4.56548 22.9963 5.08909 22.0257L3.60802 19.6931C3.43462 19.4191 3.35944 19.0941 3.39486 18.7716C3.43028 18.449 3.57419 18.1482 3.8029 17.9185L7.9009 13.8114C8.12831 13.5818 8.42675 13.4363 8.74738 13.3988C9.06802 13.3613 9.39187 13.434 9.66593 13.6049L11.9376 15.0279C12.37 14.8065 12.8074 14.6073 13.2491 14.4284ZM12.5412 25.8979C13.2907 24.5298 15 25.2914 15 26.8514C15 27.1602 14.9192 27.4619 14.7985 27.7462C14.5051 28.4367 14.343 29.1983 14.343 30C14.343 33.1709 16.8785 35.7087 20.0445 35.7087C23.2106 35.7087 25.7461 33.1709 25.7461 30C25.7461 29.1408 25.56 28.3277 25.2255 27.5988C25.0904 27.3042 25 26.9883 25 26.6642C25 25.1419 26.6661 24.3807 27.4333 25.6955C28.1726 26.9623 28.5969 28.4337 28.5969 30C28.5969 34.7157 24.7507 38.5659 20.0445 38.5659C15.3384 38.5659 11.4922 34.7157 11.4922 30C11.4922 28.5164 11.8729 27.118 12.5412 25.8979Z" fill="#2263FF"/>
</svg>
