<svg width="40" height="50" viewBox="0 0 40 50" fill="none" xmlns="http://www.w3.org/2000/svg">
<path fill-rule="evenodd" clip-rule="evenodd" d="M38.2632 8.05263H38.1579C31.5789 8.05263 25.3158 5.26316 20.8421 0.473684C20.5789 0.157895 20.2105 0 19.7895 0C19.3684 0 19 0.157895 18.7368 0.473684C14.3158 5.31579 8 8.05263 1.42105 8.05263C0.631579 8.05263 0 8.68421 0 9.47368V21.2105C0 31 4.84211 40.1579 13 45.6316L19.0526 49.7368C19.3158 49.8947 19.5789 50 19.8421 50C20.1053 50 20.4211 49.8947 20.6316 49.7368L26.6842 45.6316C34.8421 40.1579 39.6842 31 39.6842 21.2105V9.47368C39.7368 8.68421 39.0526 8.05263 38.2632 8.05263ZM36.8421 21.2105C36.8421 30.0526 32.4737 38.3158 25.1053 43.2632L19.8421 46.8421L14.5789 43.2632C7.21053 38.3158 2.84211 30.0526 2.84211 21.2105V10.8421C9.21053 10.5263 15.2632 7.89474 19.8421 3.47368C24.4211 7.89474 30.4737 10.5263 36.8421 10.8947V21.2105ZM7.21045 24.579C7.21045 31.5263 12.842 37.2105 19.842 37.2105C26.842 37.2105 32.4736 31.579 32.4736 24.579C32.4736 17.6316 26.842 11.9474 19.842 11.9474C12.842 11.9474 7.21045 17.6316 7.21045 24.579ZM29.5789 24.579C29.5789 29.9474 25.2105 34.3158 19.842 34.3158C14.4736 34.3158 10.1052 29.9474 10.1052 24.579C10.1052 19.2105 14.4736 14.8421 19.842 14.8421C25.2105 14.8421 29.5789 19.2105 29.5789 24.579ZM14.1579 23.4737C14.7369 22.9474 15.6316 23 16.1579 23.5789L18.2632 25.8947L23.5264 20.1579C24.0527 19.5789 24.9474 19.5263 25.5264 20.0526C26.1053 20.5789 26.1579 21.4737 25.6316 22.0526L19.3158 28.8947C19.0527 29.2105 18.6843 29.3684 18.2632 29.3684C17.8421 29.3684 17.4737 29.2105 17.2106 28.8947L14.0527 25.4737C13.5264 24.8947 13.579 24 14.1579 23.4737Z" fill="#2263FF"/>
</svg>
