<svg width="27" height="15" viewBox="0 0 27 15" fill="none" xmlns="http://www.w3.org/2000/svg">
<path d="M24.6981 6.08658C22.4328 3.82133 17.8422 2.33757 13.1311 2.96804L11.4393 1.27624C10.2174 0.0543768 8.60483 0.266644 7.15803 0.748206L5.21911 1.3924L8.27111 4.44441L8.27112 7.61258V10.7808L5.22017 13.8317L7.15803 14.477C8.60377 14.9596 10.2174 15.1708 11.4393 13.9489L13.1311 12.2571C17.8422 12.8876 22.4339 11.4028 24.6981 9.13858L26.2241 7.61258L24.6981 6.08658ZM18.8317 6.55652C19.1118 6.83661 19.2691 7.21648 19.2691 7.61258C19.2691 8.00868 19.1118 8.38855 18.8317 8.66864C18.5516 8.94872 18.1717 9.10607 17.7756 9.10607C17.3795 9.10607 16.9997 8.94872 16.7196 8.66864C16.4395 8.38855 16.2821 8.00868 16.2821 7.61258C16.2821 7.21648 16.4395 6.83661 16.7196 6.55652C16.9997 6.27644 17.3795 6.11909 17.7756 6.11909C18.1717 6.11909 18.5516 6.27644 18.8317 6.55652ZM5.63097 6.02849L4.57491 6.02849C3.04997 6.02849 0.878714 7.61258 0.878714 7.61258C0.878714 7.61258 2.881 9.19667 4.57491 9.19667L5.63097 9.19667L5.63097 6.02849Z" fill="white"/>
</svg>
